<svg width="20" height="20" viewBox="0 0 20 20" fill="none" xmlns="http://www.w3.org/2000/svg">
<circle cx="10" cy="10" r="10" fill="#E8E8E8"/>
<path d="M14.92 8.28063L14.875 8.10063C14.8154 7.92579 14.7366 7.7581 14.64 7.60063C14.4205 7.23405 14.1061 6.93349 13.73 6.73063L11.105 5.31063C10.7579 5.12591 10.3707 5.0293 9.9775 5.0293C9.58429 5.0293 9.19711 5.12591 8.85 5.31063L6.225 6.73063C5.84893 6.93349 5.53455 7.23405 5.315 7.60063C5.21723 7.75676 5.13993 7.9248 5.085 8.10063V8.17063C5.029 8.37085 5.00041 8.57773 5 8.78563V12.5956C5.00132 13.2251 5.25197 13.8284 5.69708 14.2736C6.14219 14.7187 6.74552 14.9693 7.375 14.9706H12.625C12.9369 14.9706 13.2457 14.9092 13.5339 14.7898C13.822 14.6705 14.0838 14.4955 14.3044 14.275C14.5249 14.0545 14.6999 13.7927 14.8192 13.5045C14.9386 13.2164 15 12.9075 15 12.5956V8.78063C14.991 8.61161 14.9642 8.44401 14.92 8.28063ZM10.79 9.95563C10.5422 10.0959 10.2623 10.1695 9.9775 10.1695C9.69275 10.1695 9.41284 10.0959 9.165 9.95563L5.9 8.06563C5.915 8.0273 5.93333 7.99063 5.955 7.95563C6.1059 7.7046 6.32185 7.49901 6.58 7.36063L9.205 5.94063C9.4412 5.81194 9.70602 5.74488 9.975 5.74563C10.2456 5.74489 10.512 5.81193 10.75 5.94063L13.375 7.36063C13.6839 7.52761 13.9297 7.79099 14.075 8.11063L10.79 9.95563Z" fill="#222959"/>
</svg>
