<svg width="41" height="41" viewBox="0 0 41 41" fill="none" xmlns="http://www.w3.org/2000/svg">
<path d="M7.6875 10.6771C7.6875 9.02683 9.02683 7.6875 10.6771 7.6875H17.5104C17.8502 7.6875 18.1761 7.55251 18.4164 7.31223C18.6567 7.07195 18.7917 6.74606 18.7917 6.40625C18.7917 6.06644 18.6567 5.74055 18.4164 5.50027C18.1761 5.25999 17.8502 5.125 17.5104 5.125H10.6771C9.20458 5.125 7.79239 5.70995 6.75117 6.75117C5.70995 7.79239 5.125 9.20458 5.125 10.6771V30.3229C5.125 31.7954 5.70995 33.2076 6.75117 34.2488C7.79239 35.2901 9.20458 35.875 10.6771 35.875H30.3229C31.7954 35.875 33.2076 35.2901 34.2488 34.2488C35.2901 33.2076 35.875 31.7954 35.875 30.3229V23.4896C35.875 23.1498 35.74 22.8239 35.4997 22.5836C35.2595 22.3433 34.9336 22.2083 34.5938 22.2083C34.2539 22.2083 33.9281 22.3433 33.6878 22.5836C33.4475 22.8239 33.3125 23.1498 33.3125 23.4896V30.3229C33.3125 31.1158 32.9975 31.8762 32.4369 32.4369C31.8762 32.9975 31.1158 33.3125 30.3229 33.3125H20.5V25.1979C20.5 24.581 20.3785 23.9701 20.1424 23.4001C19.9063 22.8301 19.5603 22.3122 19.124 21.876C18.6878 21.4397 18.1699 21.0937 17.5999 20.8576C17.0299 20.6215 16.419 20.5 15.8021 20.5H7.6875V10.6771ZM7.6875 23.0625H15.8021C16.9808 23.0625 17.9375 24.0192 17.9375 25.1979V33.3125H10.6771C9.8842 33.3125 9.12378 32.9975 8.56313 32.4369C8.00247 31.8762 7.6875 31.1158 7.6875 30.3229V23.0625ZM22.2083 6.40625C22.2083 6.06644 22.3433 5.74055 22.5836 5.50027C22.8239 5.25999 23.1498 5.125 23.4896 5.125H34.5938C34.9336 5.125 35.2595 5.25999 35.4997 5.50027C35.74 5.74055 35.875 6.06644 35.875 6.40625V17.5104C35.875 17.8502 35.74 18.1761 35.4997 18.4164C35.2595 18.6567 34.9336 18.7917 34.5938 18.7917C34.2539 18.7917 33.9281 18.6567 33.6878 18.4164C33.4475 18.1761 33.3125 17.8502 33.3125 17.5104V9.49833L24.395 18.4158C24.1521 18.6422 23.8309 18.7654 23.4989 18.7595C23.167 18.7537 22.8503 18.6192 22.6156 18.3844C22.3808 18.1497 22.2463 17.833 22.2405 17.5011C22.2346 17.1691 22.3578 16.8479 22.5842 16.605L31.5017 7.6875H23.4896C23.1498 7.6875 22.8239 7.55251 22.5836 7.31223C22.3433 7.07195 22.2083 6.74606 22.2083 6.40625Z" fill="white"/>
</svg>
