<svg width="35" height="23" viewBox="0 0 35 23" fill="none" xmlns="http://www.w3.org/2000/svg">
<path d="M17.5 6.9C16.2342 6.9 15.0202 7.38464 14.1252 8.24731C13.2301 9.10998 12.7273 10.28 12.7273 11.5C12.7273 12.72 13.2301 13.89 14.1252 14.7527C15.0202 15.6154 16.2342 16.1 17.5 16.1C18.7658 16.1 19.9798 15.6154 20.8748 14.7527C21.7699 13.89 22.2727 12.72 22.2727 11.5C22.2727 10.28 21.7699 9.10998 20.8748 8.24731C19.9798 7.38464 18.7658 6.9 17.5 6.9ZM17.5 19.1667C15.3903 19.1667 13.3671 18.3589 11.8753 16.9212C10.3835 15.4834 9.54545 13.5333 9.54545 11.5C9.54545 9.46667 10.3835 7.51663 11.8753 6.07885C13.3671 4.64107 15.3903 3.83333 17.5 3.83333C19.6097 3.83333 21.6329 4.64107 23.1247 6.07885C24.6165 7.51663 25.4545 9.46667 25.4545 11.5C25.4545 13.5333 24.6165 15.4834 23.1247 16.9212C21.6329 18.3589 19.6097 19.1667 17.5 19.1667ZM17.5 0C9.54545 0 2.75227 4.76867 0 11.5C2.75227 18.2313 9.54545 23 17.5 23C25.4545 23 32.2477 18.2313 35 11.5C32.2477 4.76867 25.4545 0 17.5 0Z" fill="#222959"/>
</svg>
