<svg width="24" height="25" viewBox="0 0 24 25" fill="none" xmlns="http://www.w3.org/2000/svg">
<path d="M20 6.1C20 5.54 20 5.26 19.89 5.046C19.7944 4.858 19.6418 4.70504 19.454 4.609C19.24 4.5 18.96 4.5 18.4 4.5H5.6C5.04 4.5 4.76 4.5 4.546 4.609C4.35785 4.70487 4.20487 4.85785 4.109 5.046C4 5.26 4 5.54 4 6.1V6.837C4 7.082 4 7.204 4.028 7.319C4.05249 7.42138 4.09299 7.51925 4.148 7.609C4.209 7.709 4.296 7.796 4.468 7.969L9.531 13.031C9.704 13.204 9.791 13.291 9.852 13.391C9.90733 13.4817 9.94733 13.5783 9.972 13.681C10 13.795 10 13.916 10 14.155V18.911C10 19.768 10 20.197 10.18 20.455C10.2581 20.5666 10.3582 20.661 10.4741 20.7326C10.59 20.8041 10.7192 20.8512 10.854 20.871C11.165 20.917 11.549 20.726 12.315 20.342L13.115 19.942C13.437 19.782 13.597 19.702 13.714 19.582C13.8178 19.476 13.8967 19.3483 13.945 19.208C14 19.05 14 18.87 14 18.511V14.163C14 13.918 14 13.796 14.028 13.681C14.0525 13.5786 14.093 13.4807 14.148 13.391C14.208 13.291 14.295 13.205 14.465 13.035L14.469 13.031L19.532 7.969C19.704 7.796 19.79 7.709 19.852 7.609C19.9073 7.51833 19.9473 7.42167 19.972 7.319C20 7.206 20 7.084 20 6.845V6.1Z" stroke="white" stroke-width="2" stroke-linecap="round" stroke-linejoin="round"/>
</svg>
