<svg width="20" height="20" viewBox="0 0 20 20" fill="none" xmlns="http://www.w3.org/2000/svg">
<circle cx="10" cy="10" r="10" fill="#E8E8E8"/>
<path d="M13.5 8.5C13.5 8.04037 13.4095 7.58525 13.2336 7.16061C13.0577 6.73597 12.7999 6.35013 12.4749 6.02513C12.1499 5.70012 11.764 5.44231 11.3394 5.26642C10.9148 5.09053 10.4596 5 10 5C9.54037 5 9.08525 5.09053 8.66061 5.26642C8.23597 5.44231 7.85013 5.70012 7.52513 6.02513C7.20012 6.35013 6.94231 6.73597 6.76642 7.16061C6.59053 7.58525 6.5 8.04037 6.5 8.5C6.5 9.1935 6.7045 9.8385 7.0525 10.3825H7.0485L10 15L12.9515 10.3825H12.948C13.3085 9.8208 13.5001 9.16741 13.5 8.5ZM10 10C9.60218 10 9.22064 9.84196 8.93934 9.56066C8.65804 9.27936 8.5 8.89782 8.5 8.5C8.5 8.10218 8.65804 7.72064 8.93934 7.43934C9.22064 7.15804 9.60218 7 10 7C10.3978 7 10.7794 7.15804 11.0607 7.43934C11.342 7.72064 11.5 8.10218 11.5 8.5C11.5 8.89782 11.342 9.27936 11.0607 9.56066C10.7794 9.84196 10.3978 10 10 10Z" fill="#222959"/>
</svg>
