<svg width="23" height="24" viewBox="0 0 23 24" fill="none" xmlns="http://www.w3.org/2000/svg">
<path d="M19.1654 11.0417C18.931 9.35521 18.1486 7.79259 16.9388 6.59452C15.729 5.39645 14.1588 4.62938 12.4701 4.41149C10.7815 4.1936 9.068 4.53696 7.59368 5.3887C6.11936 6.24043 4.96598 7.55327 4.3112 9.125M3.83203 5.29167V9.125H7.66536M3.83203 12.9583C4.0664 14.6448 4.84876 16.2074 6.05859 17.4055C7.26841 18.6036 8.8386 19.3706 10.5273 19.5885C12.2159 19.8064 13.9294 19.463 15.4037 18.6113C16.878 17.7596 18.0314 16.4467 18.6862 14.875M19.1654 18.7083V14.875H15.332" stroke="white" stroke-width="2" stroke-linecap="round" stroke-linejoin="round"/>
</svg>
