<svg width="25" height="25" viewBox="0 0 25 25" fill="none" xmlns="http://www.w3.org/2000/svg">
<path fill-rule="evenodd" clip-rule="evenodd" d="M10.9394 2.0835C9.52747 2.08362 8.13608 2.42138 6.88129 3.06859C5.62649 3.71581 4.54466 4.65372 3.72606 5.80407C2.90745 6.95442 2.37582 8.28386 2.17551 9.68146C1.97519 11.0791 2.11201 12.5043 2.57454 13.8383C3.03707 15.1722 3.8119 16.3763 4.83439 17.3499C5.85688 18.3235 7.09738 19.0385 8.45239 19.4352C9.80739 19.8319 11.2376 19.8988 12.6237 19.6303C14.0099 19.3618 15.3117 18.7657 16.4206 17.8918L20.2248 21.696C20.4212 21.8857 20.6844 21.9907 20.9575 21.9884C21.2306 21.986 21.4919 21.8764 21.685 21.6833C21.8781 21.4902 21.9877 21.2289 21.9901 20.9558C21.9924 20.6827 21.8874 20.4195 21.6977 20.2231L17.8935 16.4189C18.9227 15.1133 19.5635 13.5443 19.7426 11.8915C19.9217 10.2388 19.6318 8.56893 18.9062 7.07318C18.1807 5.57742 17.0486 4.31616 15.6397 3.43374C14.2307 2.55132 12.6018 2.08338 10.9394 2.0835ZM4.16852 10.9377C4.16852 9.14193 4.88187 7.41974 6.15165 6.14996C7.42143 4.88018 9.14361 4.16683 10.9394 4.16683C12.7351 4.16683 14.4573 4.88018 15.7271 6.14996C16.9968 7.41974 17.7102 9.14193 17.7102 10.9377C17.7102 12.7334 16.9968 14.4556 15.7271 15.7254C14.4573 16.9951 12.7351 17.7085 10.9394 17.7085C9.14361 17.7085 7.42143 16.9951 6.15165 15.7254C4.88187 14.4556 4.16852 12.7334 4.16852 10.9377Z" fill="#2A285A"/>
</svg>
