<svg width="32" height="32" viewBox="0 0 32 32" fill="none" xmlns="http://www.w3.org/2000/svg">
<path fill-rule="evenodd" clip-rule="evenodd" d="M14.0003 2.6665C12.1931 2.66666 10.4122 3.09899 8.80601 3.92743C7.19987 4.75587 5.81513 5.95639 4.76732 7.42884C3.71951 8.90129 3.03902 10.603 2.78262 12.3919C2.52621 14.1808 2.70134 16.0051 3.29338 17.7126C3.88541 19.4201 4.8772 20.9612 6.18599 22.2075C7.49477 23.4537 9.08261 24.3689 10.817 24.8766C12.5514 25.3844 14.3821 25.47 16.1564 25.1264C17.9306 24.7827 19.5969 24.0198 21.0163 22.9012L25.8857 27.7705C26.1371 28.0134 26.4739 28.1478 26.8235 28.1447C27.1731 28.1417 27.5076 28.0015 27.7548 27.7543C28.002 27.5071 28.1422 27.1726 28.1452 26.823C28.1483 26.4734 28.0139 26.1366 27.771 25.8852L22.9017 21.0158C24.219 19.3447 25.0392 17.3364 25.2685 15.2208C25.4977 13.1052 25.1267 10.9679 24.198 9.0533C23.2692 7.13873 21.8202 5.52431 20.0167 4.39481C18.2133 3.26531 16.1283 2.66636 14.0003 2.6665ZM5.33367 13.9998C5.33367 11.7013 6.24676 9.49689 7.87208 7.87158C9.49739 6.24626 11.7018 5.33317 14.0003 5.33317C16.2989 5.33317 18.5033 6.24626 20.1286 7.87158C21.7539 9.49689 22.667 11.7013 22.667 13.9998C22.667 16.2984 21.7539 18.5028 20.1286 20.1281C18.5033 21.7534 16.2989 22.6665 14.0003 22.6665C11.7018 22.6665 9.49739 21.7534 7.87208 20.1281C6.24676 18.5028 5.33367 16.2984 5.33367 13.9998Z" fill="#672361"/>
</svg>
