<svg width="28" height="26" viewBox="0 0 28 26" fill="none" xmlns="http://www.w3.org/2000/svg">
<g clip-path="url(#clip0_8514_638)">
<path d="M18.6664 8.3125C17.806 8.3125 17.1109 7.61426 17.1109 6.75C17.1109 5.88574 17.806 5.1875 18.6664 5.1875H26.4442C27.3046 5.1875 27.9997 5.88574 27.9997 6.75V14.5625C27.9997 15.4268 27.3046 16.125 26.4442 16.125C25.5838 16.125 24.8886 15.4268 24.8886 14.5625V10.5244L16.6539 18.7959C16.0463 19.4063 15.0595 19.4063 14.4518 18.7959L9.33307 13.6494L2.65391 20.3535C2.04627 20.9639 1.05946 20.9639 0.451823 20.3535C-0.155816 19.7432 -0.155816 18.752 0.451823 18.1416L8.2296 10.3291C8.83724 9.71875 9.82405 9.71875 10.4317 10.3291L15.5553 15.4756L22.6865 8.3125H18.6664Z" fill="white"/>
</g>
<defs>
<clipPath id="clip0_8514_638">
<rect width="28" height="25" fill="white" transform="translate(0 0.5)"/>
</clipPath>
</defs>
</svg>
