<svg width="25" height="26" viewBox="0 0 25 26" fill="none" xmlns="http://www.w3.org/2000/svg">
<path d="M23.9596 13L21.418 10.0938L21.7721 6.25L18.0117 5.39583L16.043 2.0625L12.5013 3.58333L8.95964 2.0625L6.99089 5.38542L3.23047 6.22917L3.58464 10.0833L1.04297 13L3.58464 15.9062L3.23047 19.7604L6.99089 20.6146L8.95964 23.9375L12.5013 22.4062L16.043 23.9271L18.0117 20.6042L21.7721 19.75L21.418 15.9062L23.9596 13ZM9.77214 17.1771L7.29297 14.6771C7.1964 14.5807 7.11979 14.4662 7.06752 14.3402C7.01525 14.2142 6.98834 14.0791 6.98834 13.9427C6.98834 13.8063 7.01525 13.6712 7.06752 13.5452C7.11979 13.4192 7.1964 13.3047 7.29297 13.2083L7.36589 13.1354C7.77214 12.7292 8.4388 12.7292 8.84505 13.1354L10.5221 14.8229L15.8867 9.44792C16.293 9.04167 16.9596 9.04167 17.3659 9.44792L17.4388 9.52083C17.8451 9.92708 17.8451 10.5833 17.4388 10.9896L11.2721 17.1771C10.8451 17.5833 10.1888 17.5833 9.77214 17.1771Z" fill="white"/>
</svg>
