<svg width="65" height="65" viewBox="0 0 65 65" fill="none" xmlns="http://www.w3.org/2000/svg">
<path fill-rule="evenodd" clip-rule="evenodd" d="M32.5013 10.8335C34.8169 10.8335 37.1921 10.8931 39.4942 10.9906L42.2134 11.1206L44.8161 11.275L47.2536 11.4402L49.4798 11.6135C51.8962 11.7974 54.1701 12.828 55.9012 14.5239C57.6322 16.2197 58.7093 18.4721 58.9428 20.8841L59.0511 22.0352L59.2542 24.4997C59.4438 27.0537 59.5846 29.8379 59.5846 32.5002C59.5846 35.1625 59.4438 37.9466 59.2542 40.5006L59.0511 42.9652L58.9428 44.1162C58.7092 46.5287 57.6318 48.7813 55.9002 50.4773C54.1686 52.1732 51.894 53.2036 49.4771 53.3868L47.2563 53.5575L44.8188 53.7254L42.2134 53.8797L39.4942 54.0097C37.1646 54.1107 34.8331 54.163 32.5013 54.1668C30.1695 54.163 27.838 54.1107 25.5084 54.0097L22.7892 53.8797L20.1865 53.7254L17.749 53.5575L15.5228 53.3868C13.1064 53.203 10.8325 52.1723 9.10142 50.4764C7.37037 48.7806 6.29328 46.5283 6.05984 44.1162L5.95151 42.9652L5.74839 40.5006C5.5421 37.8386 5.43189 35.1701 5.41797 32.5002C5.41797 29.8379 5.5588 27.0537 5.74839 24.4997L5.95151 22.0352L6.05984 20.8841C6.29319 18.4725 7.3699 16.2205 9.10039 14.5247C10.8309 12.8289 13.1042 11.798 15.5201 11.6135L17.7436 11.4402L20.1811 11.275L22.7865 11.1206L25.5057 10.9906C27.8362 10.8896 30.1686 10.8373 32.5013 10.8335ZM27.0846 25.9325V39.0679C27.0846 40.3191 28.4388 41.0991 29.5221 40.4762L40.8971 33.9085C41.1447 33.766 41.3503 33.5608 41.4932 33.3136C41.6362 33.0663 41.7114 32.7858 41.7114 32.5002C41.7114 32.2146 41.6362 31.934 41.4932 31.6868C41.3503 31.4395 41.1447 31.2343 40.8971 31.0918L29.5221 24.5268C29.275 24.3842 28.9947 24.3091 28.7094 24.3091C28.424 24.3092 28.1437 24.3843 27.8967 24.5271C27.6496 24.6698 27.4445 24.8751 27.302 25.1223C27.1594 25.3695 27.0845 25.6498 27.0846 25.9352V25.9325Z" fill="#222959"/>
</svg>
